<mxfile host="app.diagrams.net" modified="2023-06-18T19:12:22.736Z" agent="Mozilla/5.0 (Windows NT 10.0; Win64; x64) AppleWebKit/537.36 (KHTML, like Gecko) Chrome/114.0.0.0 Safari/537.36" etag="WY4nUPSprIR36GpnTlYw" version="21.5.0" type="google">
  <diagram id="R2lEEEUBdFMjLlhIrx00" name="Page-1">
    <mxGraphModel grid="1" page="1" gridSize="10" guides="1" tooltips="1" connect="1" arrows="1" fold="1" pageScale="1" pageWidth="1169" pageHeight="827" math="0" shadow="0" extFonts="Permanent Marker^https://fonts.googleapis.com/css?family=Permanent+Marker">
      <root>
        <mxCell id="0" />
        <mxCell id="1" parent="0" />
        <mxCell id="G64aTu6GSy-IPctPfjJa-5" value="Cartello" style="rounded=0;arcSize=10;whiteSpace=wrap;html=1;align=center;labelBackgroundColor=none;fillColor=#B2C9AB;strokeColor=#788AA3;fontColor=#46495D;fontFamily=Architects Daughter;fontSource=https%3A%2F%2Ffonts.googleapis.com%2Fcss%3Ffamily%3DArchitects%2BDaughter;fontSize=16;sketch=1;curveFitting=1;jiggle=2;enumerate=0;fillStyle=dashed;perimeterSpacing=1;" vertex="1" parent="1">
          <mxGeometry x="135" y="20" width="100" height="40" as="geometry" />
        </mxCell>
        <mxCell id="GJLUgDt-GYk26GwsLEry-20" style="edgeStyle=orthogonalEdgeStyle;rounded=0;orthogonalLoop=1;jettySize=auto;html=1;exitX=0.855;exitY=0;exitDx=0;exitDy=4.35;entryX=0.25;entryY=1;entryDx=0;entryDy=0;labelBackgroundColor=none;strokeColor=#788AA3;fontColor=default;exitPerimeter=0;sketch=1;curveFitting=1;jiggle=2;enumerate=0;" edge="1" parent="1" source="GJLUgDt-GYk26GwsLEry-14" target="G64aTu6GSy-IPctPfjJa-6">
          <mxGeometry relative="1" as="geometry">
            <Array as="points">
              <mxPoint x="487" y="234" />
              <mxPoint x="550" y="234" />
              <mxPoint x="550" y="200" />
              <mxPoint x="545" y="200" />
            </Array>
          </mxGeometry>
        </mxCell>
        <mxCell id="G64aTu6GSy-IPctPfjJa-6" value="P.vendita" style="rounded=0;arcSize=10;whiteSpace=wrap;html=1;align=center;labelBackgroundColor=none;fillColor=#B2C9AB;strokeColor=#788AA3;fontColor=#46495D;fontFamily=Architects Daughter;fontSource=https%3A%2F%2Ffonts.googleapis.com%2Fcss%3Ffamily%3DArchitects%2BDaughter;fontSize=16;fillStyle=dashed;sketch=1;curveFitting=1;jiggle=2;enumerate=0;perimeterSpacing=1;" vertex="1" parent="1">
          <mxGeometry x="520" y="120" width="100" height="40" as="geometry" />
        </mxCell>
        <mxCell id="G64aTu6GSy-IPctPfjJa-7" value="Ordine" style="rounded=0;arcSize=10;whiteSpace=wrap;html=1;align=center;labelBackgroundColor=none;fillColor=#B2C9AB;strokeColor=#788AA3;fontColor=#46495D;fontFamily=Architects Daughter;fontSource=https%3A%2F%2Ffonts.googleapis.com%2Fcss%3Ffamily%3DArchitects%2BDaughter;fontSize=16;sketch=1;curveFitting=1;jiggle=2;enumerate=0;fillStyle=dashed;perimeterSpacing=1;" vertex="1" parent="1">
          <mxGeometry x="20" y="40" width="100" height="40" as="geometry" />
        </mxCell>
        <mxCell id="GJLUgDt-GYk26GwsLEry-27" style="edgeStyle=orthogonalEdgeStyle;rounded=0;orthogonalLoop=1;jettySize=auto;html=1;exitX=1;exitY=0.5;exitDx=0;exitDy=0;entryX=0.855;entryY=1;entryDx=0;entryDy=-4.35;entryPerimeter=0;labelBackgroundColor=none;strokeColor=#788AA3;fontColor=default;sketch=1;curveFitting=1;jiggle=2;enumerate=0;" edge="1" parent="1" source="G64aTu6GSy-IPctPfjJa-10" target="GJLUgDt-GYk26GwsLEry-15">
          <mxGeometry relative="1" as="geometry">
            <Array as="points">
              <mxPoint x="1120" y="770" />
              <mxPoint x="1120" y="372" />
              <mxPoint x="1097" y="372" />
            </Array>
          </mxGeometry>
        </mxCell>
        <mxCell id="G64aTu6GSy-IPctPfjJa-10" value="Dispersioni" style="rounded=0;arcSize=10;whiteSpace=wrap;html=1;align=center;labelBackgroundColor=none;fillColor=#B2C9AB;strokeColor=#788AA3;fontColor=#46495D;fontFamily=Architects Daughter;fontSource=https%3A%2F%2Ffonts.googleapis.com%2Fcss%3Ffamily%3DArchitects%2BDaughter;fontSize=16;sketch=1;curveFitting=1;jiggle=2;enumerate=0;fillStyle=dashed;perimeterSpacing=1;" vertex="1" parent="1">
          <mxGeometry x="150" y="750" width="100" height="40" as="geometry" />
        </mxCell>
        <mxCell id="GJLUgDt-GYk26GwsLEry-24" style="edgeStyle=orthogonalEdgeStyle;rounded=0;orthogonalLoop=1;jettySize=auto;html=1;exitX=-0.004;exitY=0.431;exitDx=0;exitDy=0;entryX=0.75;entryY=0;entryDx=0;entryDy=0;labelBackgroundColor=none;strokeColor=#788AA3;fontColor=default;sketch=1;curveFitting=1;jiggle=2;enumerate=0;exitPerimeter=0;" edge="1" parent="1" source="GJLUgDt-GYk26GwsLEry-15" target="-T_aHecie3ltty_ikN7--42">
          <mxGeometry relative="1" as="geometry" />
        </mxCell>
        <mxCell id="GJLUgDt-GYk26GwsLEry-25" value="" style="edgeStyle=orthogonalEdgeStyle;rounded=0;orthogonalLoop=1;jettySize=auto;html=1;labelBackgroundColor=none;strokeColor=#788AA3;fontColor=default;sketch=1;curveFitting=1;jiggle=2;enumerate=0;" edge="1" parent="1" source="-T_aHecie3ltty_ikN7--48" target="vhBs8ZmzHxxtDIqULrcL-1">
          <mxGeometry relative="1" as="geometry" />
        </mxCell>
        <mxCell id="-T_aHecie3ltty_ikN7--47" value="" style="edgeStyle=orthogonalEdgeStyle;rounded=0;orthogonalLoop=1;jettySize=auto;html=1;fontFamily=Helvetica;fontSize=12;fontColor=default;sketch=1;curveFitting=1;jiggle=2;" edge="1" parent="1" source="G64aTu6GSy-IPctPfjJa-11" target="-T_aHecie3ltty_ikN7--42">
          <mxGeometry relative="1" as="geometry" />
        </mxCell>
        <mxCell id="G64aTu6GSy-IPctPfjJa-11" value="Bolla" style="rounded=0;arcSize=10;whiteSpace=wrap;html=1;align=center;labelBackgroundColor=none;fillColor=#B2C9AB;strokeColor=#788AA3;fontColor=#46495D;fontFamily=Architects Daughter;fontSource=https%3A%2F%2Ffonts.googleapis.com%2Fcss%3Ffamily%3DArchitects%2BDaughter;fontSize=16;sketch=1;curveFitting=1;jiggle=2;enumerate=0;fillStyle=dashed;perimeterSpacing=1;" vertex="1" parent="1">
          <mxGeometry x="850" y="490" width="100" height="40" as="geometry" />
        </mxCell>
        <mxCell id="GJLUgDt-GYk26GwsLEry-16" style="edgeStyle=orthogonalEdgeStyle;rounded=0;orthogonalLoop=1;jettySize=auto;html=1;exitX=-0.004;exitY=0.592;exitDx=0;exitDy=0;entryX=0.5;entryY=1;entryDx=0;entryDy=0;labelBackgroundColor=none;strokeColor=#788AA3;fontColor=default;exitPerimeter=0;sketch=1;curveFitting=1;jiggle=2;enumerate=0;" edge="1" parent="1" source="GJLUgDt-GYk26GwsLEry-14" target="G64aTu6GSy-IPctPfjJa-15">
          <mxGeometry relative="1" as="geometry">
            <Array as="points">
              <mxPoint x="70" y="327" />
            </Array>
          </mxGeometry>
        </mxCell>
        <mxCell id="GJLUgDt-GYk26GwsLEry-18" value="" style="edgeStyle=orthogonalEdgeStyle;rounded=0;orthogonalLoop=1;jettySize=auto;html=1;labelBackgroundColor=none;strokeColor=#788AA3;fontColor=default;sketch=1;curveFitting=1;jiggle=2;enumerate=0;" edge="1" parent="1" source="-T_aHecie3ltty_ikN7--20" target="Bdk8ApHo1xwkXiZpPk8h-3">
          <mxGeometry relative="1" as="geometry">
            <Array as="points" />
          </mxGeometry>
        </mxCell>
        <mxCell id="-T_aHecie3ltty_ikN7--6" value="" style="edgeStyle=orthogonalEdgeStyle;rounded=0;orthogonalLoop=1;jettySize=auto;html=1;fontFamily=Helvetica;fontSize=12;fontColor=default;sketch=1;curveFitting=1;jiggle=2;" edge="1" parent="1" source="G64aTu6GSy-IPctPfjJa-15" target="-T_aHecie3ltty_ikN7--5">
          <mxGeometry relative="1" as="geometry" />
        </mxCell>
        <mxCell id="G64aTu6GSy-IPctPfjJa-15" value="Proposta" style="rounded=0;arcSize=10;whiteSpace=wrap;html=1;align=center;labelBackgroundColor=none;fillColor=#B2C9AB;strokeColor=#788AA3;fontColor=#46495D;fontFamily=Architects Daughter;fontSource=https%3A%2F%2Ffonts.googleapis.com%2Fcss%3Ffamily%3DArchitects%2BDaughter;fontSize=16;sketch=1;curveFitting=1;jiggle=2;enumerate=0;fillStyle=dashed;perimeterSpacing=1;" vertex="1" parent="1">
          <mxGeometry x="20" y="200" width="100" height="40" as="geometry" />
        </mxCell>
        <mxCell id="GJLUgDt-GYk26GwsLEry-21" value="" style="edgeStyle=orthogonalEdgeStyle;rounded=0;orthogonalLoop=1;jettySize=auto;html=1;labelBackgroundColor=none;strokeColor=#788AA3;fontColor=default;sketch=1;curveFitting=1;jiggle=2;enumerate=0;" edge="1" parent="1" source="G64aTu6GSy-IPctPfjJa-6" target="G64aTu6GSy-IPctPfjJa-28">
          <mxGeometry relative="1" as="geometry">
            <Array as="points">
              <mxPoint x="840" y="140" />
            </Array>
          </mxGeometry>
        </mxCell>
        <mxCell id="G64aTu6GSy-IPctPfjJa-28" value="Etichetta" style="rounded=0;arcSize=10;whiteSpace=wrap;html=1;align=center;labelBackgroundColor=none;fillColor=#B2C9AB;strokeColor=#788AA3;fontColor=#46495D;fontFamily=Architects Daughter;fontSource=https%3A%2F%2Ffonts.googleapis.com%2Fcss%3Ffamily%3DArchitects%2BDaughter;fontSize=16;sketch=1;curveFitting=1;jiggle=2;enumerate=0;fillStyle=dashed;perimeterSpacing=1;" vertex="1" parent="1">
          <mxGeometry x="960" y="50" width="100" height="40" as="geometry" />
        </mxCell>
        <mxCell id="G64aTu6GSy-IPctPfjJa-59" value="Fattura cliente" style="rounded=0;arcSize=10;whiteSpace=wrap;html=1;align=center;hachureGap=4;strokeColor=#788AA3;fontFamily=Architects Daughter;fontSource=https%3A%2F%2Ffonts.googleapis.com%2Fcss%3Ffamily%3DArchitects%2BDaughter;fontSize=16;fontColor=#46495D;fillColor=#B2C9AB;sketch=1;curveFitting=1;jiggle=2;labelBackgroundColor=none;enumerate=0;fillStyle=dashed;perimeterSpacing=1;" vertex="1" parent="1">
          <mxGeometry x="30" y="740" width="100" height="40" as="geometry" />
        </mxCell>
        <mxCell id="GJLUgDt-GYk26GwsLEry-30" style="edgeStyle=orthogonalEdgeStyle;rounded=0;orthogonalLoop=1;jettySize=auto;html=1;exitX=1;exitY=0.25;exitDx=0;exitDy=0;entryX=-0.004;entryY=0.8;entryDx=0;entryDy=0;entryPerimeter=0;strokeColor=#788AA3;fontColor=#46495D;fillColor=#B2C9AB;sketch=1;curveFitting=1;jiggle=2;enumerate=0;" edge="1" parent="1" source="G64aTu6GSy-IPctPfjJa-61" target="GJLUgDt-GYk26GwsLEry-14">
          <mxGeometry relative="1" as="geometry" />
        </mxCell>
        <mxCell id="G64aTu6GSy-IPctPfjJa-61" value="Transazioni" style="rounded=0;arcSize=10;whiteSpace=wrap;html=1;align=center;hachureGap=4;strokeColor=#788AA3;fontFamily=Architects Daughter;fontSource=https%3A%2F%2Ffonts.googleapis.com%2Fcss%3Ffamily%3DArchitects%2BDaughter;fontSize=16;fontColor=#46495D;fillColor=#B2C9AB;sketch=1;curveFitting=1;jiggle=2;labelBackgroundColor=none;enumerate=0;fillStyle=dashed;perimeterSpacing=1;" vertex="1" parent="1">
          <mxGeometry x="35" y="359" width="100" height="40" as="geometry" />
        </mxCell>
        <mxCell id="G64aTu6GSy-IPctPfjJa-64" value="Cliente" style="rounded=0;arcSize=10;whiteSpace=wrap;html=1;align=center;hachureGap=4;strokeColor=#788AA3;fontFamily=Architects Daughter;fontSource=https%3A%2F%2Ffonts.googleapis.com%2Fcss%3Ffamily%3DArchitects%2BDaughter;fontSize=16;fontColor=#46495D;fillColor=#B2C9AB;sketch=1;curveFitting=1;jiggle=2;labelBackgroundColor=none;enumerate=0;fillStyle=dashed;perimeterSpacing=1;" vertex="1" parent="1">
          <mxGeometry x="10" y="640" width="100" height="40" as="geometry" />
        </mxCell>
        <mxCell id="vhBs8ZmzHxxtDIqULrcL-1" value="Fattura forn" style="rounded=0;arcSize=10;whiteSpace=wrap;html=1;align=center;hachureGap=4;strokeColor=#788AA3;fontFamily=Architects Daughter;fontSource=https%3A%2F%2Ffonts.googleapis.com%2Fcss%3Ffamily%3DArchitects%2BDaughter;fontSize=16;fontColor=#46495D;fillColor=#B2C9AB;sketch=1;curveFitting=1;jiggle=2;labelBackgroundColor=none;enumerate=0;fillStyle=dashed;perimeterSpacing=1;" vertex="1" parent="1">
          <mxGeometry x="560" y="490" width="100" height="40" as="geometry" />
        </mxCell>
        <mxCell id="GJLUgDt-GYk26GwsLEry-19" value="" style="edgeStyle=orthogonalEdgeStyle;rounded=0;orthogonalLoop=1;jettySize=auto;html=1;labelBackgroundColor=none;strokeColor=#788AA3;fontColor=default;sketch=1;curveFitting=1;jiggle=2;enumerate=0;startArrow=classic;startFill=1;" edge="1" parent="1" source="GJLUgDt-GYk26GwsLEry-14" target="n9X7vhYd9Aa5r7cGzDHP-1">
          <mxGeometry relative="1" as="geometry" />
        </mxCell>
        <mxCell id="n9X7vhYd9Aa5r7cGzDHP-1" value="Promozione" style="whiteSpace=wrap;html=1;fontSize=16;fontFamily=Architects Daughter;fillColor=#B2C9AB;strokeColor=#788AA3;rounded=0;labelBackgroundColor=none;fontSource=https%3A%2F%2Ffonts.googleapis.com%2Fcss%3Ffamily%3DArchitects%2BDaughter;fontColor=#46495D;arcSize=10;fillStyle=dashed;sketch=1;curveFitting=1;jiggle=2;enumerate=0;perimeterSpacing=1;" vertex="1" parent="1">
          <mxGeometry x="345" y="105" width="120" height="60" as="geometry" />
        </mxCell>
        <mxCell id="GJLUgDt-GYk26GwsLEry-17" style="edgeStyle=orthogonalEdgeStyle;rounded=0;orthogonalLoop=1;jettySize=auto;html=1;exitX=0.278;exitY=-0.008;exitDx=0;exitDy=0;entryX=0.75;entryY=1;entryDx=0;entryDy=0;labelBackgroundColor=none;strokeColor=#788AA3;fontColor=default;exitPerimeter=0;sketch=1;curveFitting=1;jiggle=2;enumerate=0;" edge="1" parent="1" source="GJLUgDt-GYk26GwsLEry-14" target="Bdk8ApHo1xwkXiZpPk8h-3">
          <mxGeometry relative="1" as="geometry" />
        </mxCell>
        <mxCell id="Bdk8ApHo1xwkXiZpPk8h-3" value="Assortimento" style="rounded=0;arcSize=10;whiteSpace=wrap;html=1;align=center;labelBackgroundColor=none;fillColor=#B2C9AB;strokeColor=#788AA3;fontColor=#46495D;fontFamily=Architects Daughter;fontSource=https%3A%2F%2Ffonts.googleapis.com%2Fcss%3Ffamily%3DArchitects%2BDaughter;fontSize=16;fillStyle=dashed;sketch=1;curveFitting=1;jiggle=2;enumerate=0;perimeterSpacing=1;" vertex="1" parent="1">
          <mxGeometry x="230" y="90" width="100" height="40" as="geometry" />
        </mxCell>
        <mxCell id="GJLUgDt-GYk26GwsLEry-28" value="" style="edgeStyle=orthogonalEdgeStyle;rounded=0;orthogonalLoop=1;jettySize=auto;html=1;labelBackgroundColor=none;strokeColor=#788AA3;fontColor=default;sketch=1;curveFitting=1;jiggle=2;enumerate=0;" edge="1" parent="1" source="GJLUgDt-GYk26GwsLEry-15" target="Bdk8ApHo1xwkXiZpPk8h-14">
          <mxGeometry relative="1" as="geometry" />
        </mxCell>
        <mxCell id="GJLUgDt-GYk26GwsLEry-29" style="edgeStyle=orthogonalEdgeStyle;rounded=0;orthogonalLoop=1;jettySize=auto;html=1;exitX=0;exitY=0.75;exitDx=0;exitDy=0;labelBackgroundColor=none;strokeColor=#788AA3;fontColor=default;sketch=1;curveFitting=1;jiggle=2;enumerate=0;entryX=1;entryY=0;entryDx=0;entryDy=90;entryPerimeter=0;" edge="1" parent="1" source="Bdk8ApHo1xwkXiZpPk8h-14" target="GJLUgDt-GYk26GwsLEry-14">
          <mxGeometry relative="1" as="geometry">
            <mxPoint x="710" y="350" as="targetPoint" />
            <Array as="points">
              <mxPoint x="1009" y="210" />
              <mxPoint x="850" y="210" />
              <mxPoint x="850" y="369" />
            </Array>
          </mxGeometry>
        </mxCell>
        <mxCell id="Bdk8ApHo1xwkXiZpPk8h-14" value="Display" style="rounded=0;arcSize=10;whiteSpace=wrap;html=1;align=center;hachureGap=4;strokeColor=#788AA3;fontFamily=Architects Daughter;fontSource=https%3A%2F%2Ffonts.googleapis.com%2Fcss%3Ffamily%3DArchitects%2BDaughter;fontSize=16;fontColor=#46495D;fillColor=#B2C9AB;sketch=1;curveFitting=1;jiggle=2;labelBackgroundColor=none;enumerate=0;fillStyle=dashed;perimeterSpacing=1;" vertex="1" parent="1">
          <mxGeometry x="1010" y="125" width="100" height="40" as="geometry" />
        </mxCell>
        <mxCell id="GJLUgDt-GYk26GwsLEry-31" style="edgeStyle=orthogonalEdgeStyle;rounded=0;orthogonalLoop=1;jettySize=auto;html=1;exitX=1;exitY=0.25;exitDx=0;exitDy=0;strokeColor=#788AA3;fontColor=#46495D;fillColor=#B2C9AB;entryX=0.086;entryY=0.955;entryDx=0;entryDy=0;entryPerimeter=0;sketch=1;curveFitting=1;jiggle=2;enumerate=0;" edge="1" parent="1" source="GxkHW0Vp97XtZDzyzP0c-7" target="GJLUgDt-GYk26GwsLEry-14">
          <mxGeometry relative="1" as="geometry">
            <Array as="points">
              <mxPoint x="280" y="450" />
              <mxPoint x="280" y="415" />
            </Array>
          </mxGeometry>
        </mxCell>
        <mxCell id="GJLUgDt-GYk26GwsLEry-36" value="" style="edgeStyle=orthogonalEdgeStyle;rounded=0;orthogonalLoop=1;jettySize=auto;html=1;strokeColor=#788AA3;fontColor=#46495D;fillColor=#B2C9AB;sketch=1;curveFitting=1;jiggle=2;enumerate=0;" edge="1" parent="1" source="-T_aHecie3ltty_ikN7--52" target="G64aTu6GSy-IPctPfjJa-64">
          <mxGeometry relative="1" as="geometry" />
        </mxCell>
        <mxCell id="-T_aHecie3ltty_ikN7--56" style="edgeStyle=orthogonalEdgeStyle;rounded=0;orthogonalLoop=1;jettySize=auto;html=1;exitX=0.75;exitY=1;exitDx=0;exitDy=0;fontFamily=Helvetica;fontSize=12;fontColor=default;sketch=1;curveFitting=1;jiggle=2;" edge="1" parent="1" source="GxkHW0Vp97XtZDzyzP0c-7">
          <mxGeometry relative="1" as="geometry">
            <mxPoint x="130" y="740" as="targetPoint" />
            <Array as="points">
              <mxPoint x="170" y="501" />
              <mxPoint x="170" y="620" />
              <mxPoint x="130" y="620" />
            </Array>
          </mxGeometry>
        </mxCell>
        <mxCell id="-T_aHecie3ltty_ikN7--71" style="edgeStyle=orthogonalEdgeStyle;rounded=0;orthogonalLoop=1;jettySize=auto;html=1;entryX=0.5;entryY=0;entryDx=0;entryDy=0;fontFamily=Helvetica;fontSize=12;fontColor=default;sketch=1;curveFitting=1;jiggle=2;" edge="1" parent="1" source="GxkHW0Vp97XtZDzyzP0c-7" target="-T_aHecie3ltty_ikN7--69">
          <mxGeometry relative="1" as="geometry" />
        </mxCell>
        <mxCell id="GxkHW0Vp97XtZDzyzP0c-7" value="Scontrino" style="whiteSpace=wrap;html=1;align=center;verticalAlign=middle;treeFolding=1;treeMoving=1;sketch=1;curveFitting=1;jiggle=2;fontSize=16;fontFamily=Architects Daughter;fillColor=#B2C9AB;strokeColor=#788AA3;fontColor=#46495D;rounded=0;arcSize=10;hachureGap=4;fontSource=https%3A%2F%2Ffonts.googleapis.com%2Fcss%3Ffamily%3DArchitects%2BDaughter;labelBackgroundColor=none;enumerate=0;fillStyle=dashed;perimeterSpacing=1;" vertex="1" parent="1">
          <mxGeometry x="140" y="435" width="100" height="60" as="geometry" />
        </mxCell>
        <mxCell id="GJLUgDt-GYk26GwsLEry-32" style="edgeStyle=orthogonalEdgeStyle;rounded=0;orthogonalLoop=1;jettySize=auto;html=1;exitX=0.565;exitY=0.992;exitDx=0;exitDy=0;entryX=0;entryY=0.5;entryDx=0;entryDy=0;strokeColor=#788AA3;fontColor=#46495D;fillColor=#B2C9AB;exitPerimeter=0;sketch=1;curveFitting=1;jiggle=2;enumerate=0;" edge="1" parent="1" source="GJLUgDt-GYk26GwsLEry-14" target="GxkHW0Vp97XtZDzyzP0c-8">
          <mxGeometry relative="1" as="geometry" />
        </mxCell>
        <mxCell id="GJLUgDt-GYk26GwsLEry-34" style="edgeStyle=orthogonalEdgeStyle;rounded=0;orthogonalLoop=1;jettySize=auto;html=1;exitX=1;exitY=0.5;exitDx=0;exitDy=0;entryX=0.335;entryY=1.008;entryDx=0;entryDy=0;entryPerimeter=0;strokeColor=#788AA3;fontColor=#46495D;fillColor=#B2C9AB;sketch=1;curveFitting=1;jiggle=2;enumerate=0;" edge="1" parent="1" source="GxkHW0Vp97XtZDzyzP0c-8" target="GJLUgDt-GYk26GwsLEry-15">
          <mxGeometry relative="1" as="geometry" />
        </mxCell>
        <mxCell id="GxkHW0Vp97XtZDzyzP0c-8" value="Vendite" style="whiteSpace=wrap;html=1;align=center;verticalAlign=middle;treeFolding=1;treeMoving=1;sketch=1;curveFitting=1;jiggle=2;fontSize=16;fontFamily=Architects Daughter;fillColor=#B2C9AB;strokeColor=#788AA3;fontColor=#46495D;rounded=0;arcSize=10;hachureGap=4;fontSource=https%3A%2F%2Ffonts.googleapis.com%2Fcss%3Ffamily%3DArchitects%2BDaughter;labelBackgroundColor=none;enumerate=0;fillStyle=dashed;perimeterSpacing=1;" vertex="1" parent="1">
          <mxGeometry x="450" y="550" width="100" height="60" as="geometry" />
        </mxCell>
        <mxCell id="-T_aHecie3ltty_ikN7--16" style="edgeStyle=orthogonalEdgeStyle;rounded=0;orthogonalLoop=1;jettySize=auto;html=1;exitX=0.145;exitY=1;exitDx=0;exitDy=-4.35;exitPerimeter=0;fontFamily=Helvetica;fontSize=12;fontColor=default;sketch=1;curveFitting=1;jiggle=2;" edge="1" parent="1" source="GJLUgDt-GYk26GwsLEry-14">
          <mxGeometry relative="1" as="geometry">
            <mxPoint x="220" y="750" as="targetPoint" />
            <Array as="points">
              <mxPoint x="323" y="490" />
              <mxPoint x="250" y="490" />
              <mxPoint x="250" y="565" />
              <mxPoint x="220" y="565" />
              <mxPoint x="220" y="749" />
            </Array>
          </mxGeometry>
        </mxCell>
        <mxCell id="-T_aHecie3ltty_ikN7--75" style="edgeStyle=orthogonalEdgeStyle;rounded=0;orthogonalLoop=1;jettySize=auto;html=1;entryX=0.25;entryY=1;entryDx=0;entryDy=0;fontFamily=Helvetica;fontSize=12;fontColor=default;sketch=1;curveFitting=1;jiggle=2;" edge="1" parent="1" source="GJLUgDt-GYk26GwsLEry-14" target="G64aTu6GSy-IPctPfjJa-28">
          <mxGeometry relative="1" as="geometry">
            <Array as="points">
              <mxPoint x="820" y="300" />
              <mxPoint x="820" y="170" />
              <mxPoint x="985" y="170" />
            </Array>
          </mxGeometry>
        </mxCell>
        <mxCell id="GJLUgDt-GYk26GwsLEry-14" value="&lt;span style=&quot;background-color: rgb(255, 255, 255);&quot;&gt;Anagrafica&lt;/span&gt;" style="shape=cylinder3;whiteSpace=wrap;html=1;boundedLbl=1;backgroundOutline=1;size=15;fontSize=16;fontFamily=Architects Daughter;fillColor=#B2C9AB;strokeColor=#788AA3;fontColor=#46495D;rounded=0;arcSize=10;labelBackgroundColor=none;fontSource=https%3A%2F%2Ffonts.googleapis.com%2Fcss%3Ffamily%3DArchitects%2BDaughter;sketch=1;curveFitting=1;jiggle=2;fontStyle=1;strokeWidth=3;enumerate=0;fillStyle=dashed;perimeterSpacing=1;" vertex="1" parent="1">
          <mxGeometry x="420" y="280" width="230" height="130" as="geometry" />
        </mxCell>
        <mxCell id="GJLUgDt-GYk26GwsLEry-15" value="&lt;span style=&quot;background-color: rgb(255, 255, 255);&quot;&gt;Magazzino&lt;/span&gt;" style="shape=cylinder3;whiteSpace=wrap;html=1;boundedLbl=1;backgroundOutline=1;size=15;fontSize=16;fontFamily=Architects Daughter;fillColor=#B2C9AB;strokeColor=#788AA3;fontColor=#46495D;rounded=0;arcSize=10;labelBackgroundColor=none;fontSource=https%3A%2F%2Ffonts.googleapis.com%2Fcss%3Ffamily%3DArchitects%2BDaughter;sketch=1;curveFitting=1;jiggle=2;fontStyle=1;perimeterSpacing=1;strokeWidth=4;fillStyle=dashed;enumerate=0;" vertex="1" parent="1">
          <mxGeometry x="900" y="222" width="230" height="130" as="geometry" />
        </mxCell>
        <mxCell id="-T_aHecie3ltty_ikN7--7" value="" style="edgeStyle=orthogonalEdgeStyle;rounded=0;orthogonalLoop=1;jettySize=auto;html=1;fontFamily=Helvetica;fontSize=12;fontColor=default;sketch=1;curveFitting=1;jiggle=2;" edge="1" parent="1" source="-T_aHecie3ltty_ikN7--5" target="G64aTu6GSy-IPctPfjJa-7">
          <mxGeometry relative="1" as="geometry" />
        </mxCell>
        <mxCell id="-T_aHecie3ltty_ikN7--5" value="Genera" style="shape=rhombus;perimeter=rhombusPerimeter;whiteSpace=wrap;html=1;align=center;sketch=1;jiggle=2;curveFitting=1;strokeColor=default;fontFamily=Helvetica;fontSize=12;fontColor=default;fillColor=default;" vertex="1" parent="1">
          <mxGeometry x="10" y="120" width="120" height="50" as="geometry" />
        </mxCell>
        <mxCell id="-T_aHecie3ltty_ikN7--9" value="" style="edgeStyle=orthogonalEdgeStyle;rounded=0;orthogonalLoop=1;jettySize=auto;html=1;exitX=0.145;exitY=1;exitDx=0;exitDy=-4.35;entryX=1;entryY=0.5;entryDx=0;entryDy=0;labelBackgroundColor=none;strokeColor=#788AA3;fontColor=default;sketch=1;curveFitting=1;jiggle=2;enumerate=0;exitPerimeter=0;" edge="1" parent="1" source="G64aTu6GSy-IPctPfjJa-4" target="-T_aHecie3ltty_ikN7--14">
          <mxGeometry relative="1" as="geometry">
            <mxPoint x="253" y="377" as="sourcePoint" />
            <mxPoint x="226" y="749" as="targetPoint" />
          </mxGeometry>
        </mxCell>
        <mxCell id="G64aTu6GSy-IPctPfjJa-4" value="Utente" style="rounded=0;arcSize=10;whiteSpace=wrap;html=1;align=center;labelBackgroundColor=none;fillColor=#B2C9AB;strokeColor=#788AA3;fontColor=#46495D;fontFamily=Architects Daughter;fontSource=https%3A%2F%2Ffonts.googleapis.com%2Fcss%3Ffamily%3DArchitects%2BDaughter;fontSize=22;sketch=1;curveFitting=1;jiggle=2;enumerate=0;fillStyle=dashed;perimeterSpacing=1;" vertex="1" parent="1">
          <mxGeometry x="860" y="640" width="90" height="60" as="geometry" />
        </mxCell>
        <mxCell id="-T_aHecie3ltty_ikN7--11" value="Aggiorna" style="shape=rhombus;perimeter=rhombusPerimeter;whiteSpace=wrap;html=1;align=center;sketch=1;jiggle=2;curveFitting=1;strokeColor=default;fontFamily=Helvetica;fontSize=12;fontColor=default;fillColor=default;" vertex="1" parent="1">
          <mxGeometry x="550" y="740" width="120" height="60" as="geometry" />
        </mxCell>
        <mxCell id="-T_aHecie3ltty_ikN7--12" value="(1:1)" style="text;html=1;align=center;verticalAlign=middle;resizable=0;points=[];autosize=1;strokeColor=none;fillColor=none;fontSize=12;fontFamily=Helvetica;fontColor=default;sketch=1;curveFitting=1;jiggle=2;" vertex="1" parent="1">
          <mxGeometry x="405" y="738" width="50" height="30" as="geometry" />
        </mxCell>
        <mxCell id="-T_aHecie3ltty_ikN7--13" value="(1:M)" style="text;html=1;align=center;verticalAlign=middle;resizable=0;points=[];autosize=1;strokeColor=none;fillColor=none;fontSize=12;fontFamily=Helvetica;fontColor=default;sketch=1;curveFitting=1;jiggle=2;" vertex="1" parent="1">
          <mxGeometry x="725" y="738" width="50" height="30" as="geometry" />
        </mxCell>
        <mxCell id="-T_aHecie3ltty_ikN7--15" value="" style="edgeStyle=orthogonalEdgeStyle;rounded=0;orthogonalLoop=1;jettySize=auto;html=1;exitX=0.175;exitY=0.75;exitDx=0;exitDy=0;entryX=0.75;entryY=0;entryDx=0;entryDy=0;labelBackgroundColor=none;strokeColor=#788AA3;fontColor=default;sketch=1;curveFitting=1;jiggle=2;enumerate=0;exitPerimeter=0;" edge="1" parent="1" source="-T_aHecie3ltty_ikN7--14" target="G64aTu6GSy-IPctPfjJa-10">
          <mxGeometry relative="1" as="geometry">
            <mxPoint x="262" y="587" as="sourcePoint" />
            <mxPoint x="226" y="749" as="targetPoint" />
          </mxGeometry>
        </mxCell>
        <mxCell id="-T_aHecie3ltty_ikN7--14" value="Genera" style="shape=rhombus;perimeter=rhombusPerimeter;whiteSpace=wrap;html=1;align=center;sketch=1;jiggle=2;curveFitting=1;strokeColor=default;fontFamily=Helvetica;fontSize=12;fontColor=default;fillColor=default;" vertex="1" parent="1">
          <mxGeometry x="395" y="660" width="120" height="60" as="geometry" />
        </mxCell>
        <mxCell id="-T_aHecie3ltty_ikN7--17" value="(M:1)" style="text;html=1;align=center;verticalAlign=middle;resizable=0;points=[];autosize=1;strokeColor=none;fillColor=none;fontSize=12;fontFamily=Helvetica;fontColor=default;sketch=1;curveFitting=1;jiggle=2;" vertex="1" parent="1">
          <mxGeometry x="175" y="708" width="50" height="30" as="geometry" />
        </mxCell>
        <mxCell id="-T_aHecie3ltty_ikN7--18" value="(1:1)" style="text;html=1;align=center;verticalAlign=middle;resizable=0;points=[];autosize=1;strokeColor=none;fillColor=none;fontSize=12;fontFamily=Helvetica;fontColor=default;sketch=1;curveFitting=1;jiggle=2;" vertex="1" parent="1">
          <mxGeometry x="65" y="168" width="50" height="30" as="geometry" />
        </mxCell>
        <mxCell id="-T_aHecie3ltty_ikN7--19" value="(1:1)" style="text;html=1;align=center;verticalAlign=middle;resizable=0;points=[];autosize=1;strokeColor=none;fillColor=none;fontSize=12;fontFamily=Helvetica;fontColor=default;sketch=1;curveFitting=1;jiggle=2;" vertex="1" parent="1">
          <mxGeometry x="80" y="90" width="50" height="30" as="geometry" />
        </mxCell>
        <mxCell id="-T_aHecie3ltty_ikN7--21" value="" style="edgeStyle=orthogonalEdgeStyle;rounded=0;orthogonalLoop=1;jettySize=auto;html=1;labelBackgroundColor=none;strokeColor=#788AA3;fontColor=default;sketch=1;curveFitting=1;jiggle=2;enumerate=0;" edge="1" parent="1" source="G64aTu6GSy-IPctPfjJa-15" target="-T_aHecie3ltty_ikN7--20">
          <mxGeometry relative="1" as="geometry">
            <mxPoint x="121" y="220" as="sourcePoint" />
            <mxPoint x="250" y="131" as="targetPoint" />
            <Array as="points">
              <mxPoint x="250" y="220" />
            </Array>
          </mxGeometry>
        </mxCell>
        <mxCell id="-T_aHecie3ltty_ikN7--20" value="Consulta" style="shape=rhombus;perimeter=rhombusPerimeter;whiteSpace=wrap;html=1;align=center;sketch=1;jiggle=2;curveFitting=1;strokeColor=default;fontFamily=Helvetica;fontSize=12;fontColor=default;fillColor=default;" vertex="1" parent="1">
          <mxGeometry x="140" y="190" width="120" height="50" as="geometry" />
        </mxCell>
        <mxCell id="-T_aHecie3ltty_ikN7--22" value="(1:M)" style="text;html=1;align=center;verticalAlign=middle;resizable=0;points=[];autosize=1;strokeColor=none;fillColor=none;fontSize=12;fontFamily=Helvetica;fontColor=default;sketch=1;curveFitting=1;jiggle=2;" vertex="1" parent="1">
          <mxGeometry x="116" y="222" width="50" height="30" as="geometry" />
        </mxCell>
        <mxCell id="-T_aHecie3ltty_ikN7--23" value="(1:M)" style="text;html=1;align=center;verticalAlign=middle;resizable=0;points=[];autosize=1;strokeColor=none;fillColor=none;fontSize=12;fontFamily=Helvetica;fontColor=default;sketch=1;curveFitting=1;jiggle=2;" vertex="1" parent="1">
          <mxGeometry x="200" y="130" width="50" height="30" as="geometry" />
        </mxCell>
        <mxCell id="-T_aHecie3ltty_ikN7--25" style="edgeStyle=orthogonalEdgeStyle;rounded=0;orthogonalLoop=1;jettySize=auto;html=1;exitX=0;exitY=0.5;exitDx=0;exitDy=0;entryX=1;entryY=0.25;entryDx=0;entryDy=0;fontFamily=Helvetica;fontSize=12;fontColor=default;sketch=1;curveFitting=1;jiggle=2;" edge="1" parent="1" source="-T_aHecie3ltty_ikN7--27" target="n9X7vhYd9Aa5r7cGzDHP-1">
          <mxGeometry relative="1" as="geometry">
            <Array as="points">
              <mxPoint x="500" y="63" />
              <mxPoint x="480" y="63" />
              <mxPoint x="480" y="100" />
              <mxPoint x="485" y="100" />
              <mxPoint x="485" y="120" />
            </Array>
          </mxGeometry>
        </mxCell>
        <mxCell id="-T_aHecie3ltty_ikN7--26" style="edgeStyle=orthogonalEdgeStyle;rounded=0;orthogonalLoop=1;jettySize=auto;html=1;exitX=0.25;exitY=1;exitDx=0;exitDy=0;entryX=0.402;entryY=0.048;entryDx=0;entryDy=0;entryPerimeter=0;fontFamily=Helvetica;fontSize=12;fontColor=default;sketch=1;curveFitting=1;jiggle=2;" edge="1" parent="1" source="-T_aHecie3ltty_ikN7--24" target="G64aTu6GSy-IPctPfjJa-6">
          <mxGeometry relative="1" as="geometry" />
        </mxCell>
        <mxCell id="-T_aHecie3ltty_ikN7--24" value="Utente" style="rounded=0;arcSize=10;whiteSpace=wrap;html=1;align=center;labelBackgroundColor=none;fillColor=#B2C9AB;strokeColor=#788AA3;fontColor=#46495D;fontFamily=Architects Daughter;fontSource=https%3A%2F%2Ffonts.googleapis.com%2Fcss%3Ffamily%3DArchitects%2BDaughter;fontSize=22;sketch=1;curveFitting=1;jiggle=2;enumerate=0;fillStyle=dashed;perimeterSpacing=1;" vertex="1" parent="1">
          <mxGeometry x="730" y="15" width="90" height="60" as="geometry" />
        </mxCell>
        <mxCell id="-T_aHecie3ltty_ikN7--28" value="" style="edgeStyle=orthogonalEdgeStyle;rounded=0;orthogonalLoop=1;jettySize=auto;html=1;exitX=0;exitY=0.75;exitDx=0;exitDy=0;entryX=1;entryY=0.25;entryDx=0;entryDy=0;fontFamily=Helvetica;fontSize=12;fontColor=default;sketch=1;curveFitting=1;jiggle=2;" edge="1" parent="1" source="-T_aHecie3ltty_ikN7--24" target="-T_aHecie3ltty_ikN7--27">
          <mxGeometry relative="1" as="geometry">
            <mxPoint x="619" y="56" as="sourcePoint" />
            <mxPoint x="491" y="75" as="targetPoint" />
          </mxGeometry>
        </mxCell>
        <mxCell id="-T_aHecie3ltty_ikN7--27" value="Genera" style="shape=rhombus;perimeter=rhombusPerimeter;whiteSpace=wrap;html=1;align=center;sketch=1;jiggle=2;curveFitting=1;strokeColor=default;fontFamily=Helvetica;fontSize=12;fontColor=default;fillColor=default;" vertex="1" parent="1">
          <mxGeometry x="500" y="30" width="120" height="50" as="geometry" />
        </mxCell>
        <mxCell id="-T_aHecie3ltty_ikN7--29" value="(1:1)" style="text;html=1;align=center;verticalAlign=middle;resizable=0;points=[];autosize=1;strokeColor=none;fillColor=none;fontSize=12;fontFamily=Helvetica;fontColor=default;sketch=1;curveFitting=1;jiggle=2;" vertex="1" parent="1">
          <mxGeometry x="600" y="10" width="50" height="30" as="geometry" />
        </mxCell>
        <mxCell id="-T_aHecie3ltty_ikN7--30" value="(1:1)" style="text;html=1;align=center;verticalAlign=middle;resizable=0;points=[];autosize=1;strokeColor=none;fillColor=none;fontSize=12;fontFamily=Helvetica;fontColor=default;sketch=1;curveFitting=1;jiggle=2;" vertex="1" parent="1">
          <mxGeometry x="455" y="20" width="50" height="30" as="geometry" />
        </mxCell>
        <mxCell id="-T_aHecie3ltty_ikN7--31" value="(M:M)" style="text;html=1;align=center;verticalAlign=middle;resizable=0;points=[];autosize=1;strokeColor=none;fillColor=none;fontSize=12;fontFamily=Helvetica;fontColor=default;sketch=1;curveFitting=1;jiggle=2;" vertex="1" parent="1">
          <mxGeometry x="615" y="68" width="50" height="30" as="geometry" />
        </mxCell>
        <mxCell id="-T_aHecie3ltty_ikN7--32" value="(M:M)" style="text;html=1;align=center;verticalAlign=middle;resizable=0;points=[];autosize=1;strokeColor=none;fillColor=none;fontSize=12;fontFamily=Helvetica;fontColor=default;sketch=1;curveFitting=1;jiggle=2;" vertex="1" parent="1">
          <mxGeometry x="620" y="110" width="50" height="30" as="geometry" />
        </mxCell>
        <mxCell id="-T_aHecie3ltty_ikN7--38" value="" style="edgeStyle=orthogonalEdgeStyle;rounded=0;orthogonalLoop=1;jettySize=auto;html=1;fontFamily=Helvetica;fontSize=12;fontColor=default;sketch=1;curveFitting=1;jiggle=2;" edge="1" parent="1" source="GxkHW0Vp97XtZDzyzP0c-7" target="-T_aHecie3ltty_ikN7--37">
          <mxGeometry relative="1" as="geometry">
            <mxPoint x="119" y="470" as="sourcePoint" />
            <mxPoint x="30" y="470" as="targetPoint" />
          </mxGeometry>
        </mxCell>
        <mxCell id="-T_aHecie3ltty_ikN7--39" value="" style="edgeStyle=orthogonalEdgeStyle;rounded=0;orthogonalLoop=1;jettySize=auto;html=1;fontFamily=Helvetica;fontSize=12;fontColor=default;sketch=1;curveFitting=1;jiggle=2;" edge="1" parent="1" source="-T_aHecie3ltty_ikN7--37" target="G64aTu6GSy-IPctPfjJa-61">
          <mxGeometry relative="1" as="geometry" />
        </mxCell>
        <mxCell id="-T_aHecie3ltty_ikN7--37" value="Raccoglie" style="shape=rhombus;perimeter=rhombusPerimeter;whiteSpace=wrap;html=1;align=center;sketch=1;jiggle=2;curveFitting=1;strokeColor=default;fontFamily=Helvetica;fontSize=12;fontColor=default;fillColor=default;" vertex="1" parent="1">
          <mxGeometry y="440" width="120" height="60" as="geometry" />
        </mxCell>
        <mxCell id="-T_aHecie3ltty_ikN7--40" value="(1:M)" style="text;html=1;align=center;verticalAlign=middle;resizable=0;points=[];autosize=1;strokeColor=none;fillColor=none;fontSize=12;fontFamily=Helvetica;fontColor=default;sketch=1;curveFitting=1;jiggle=2;" vertex="1" parent="1">
          <mxGeometry x="80" y="430" width="50" height="30" as="geometry" />
        </mxCell>
        <mxCell id="-T_aHecie3ltty_ikN7--41" value="(1:1)" style="text;html=1;align=center;verticalAlign=middle;resizable=0;points=[];autosize=1;strokeColor=none;fillColor=none;fontSize=12;fontFamily=Helvetica;fontColor=default;sketch=1;curveFitting=1;jiggle=2;" vertex="1" parent="1">
          <mxGeometry x="10" y="414" width="50" height="30" as="geometry" />
        </mxCell>
        <mxCell id="-T_aHecie3ltty_ikN7--42" value="Riceve" style="shape=rhombus;perimeter=rhombusPerimeter;whiteSpace=wrap;html=1;align=center;sketch=1;jiggle=2;curveFitting=1;strokeColor=default;fontFamily=Helvetica;fontSize=12;fontColor=default;fillColor=default;" vertex="1" parent="1">
          <mxGeometry x="810" y="389" width="120" height="50" as="geometry" />
        </mxCell>
        <mxCell id="-T_aHecie3ltty_ikN7--49" value="" style="edgeStyle=orthogonalEdgeStyle;rounded=0;orthogonalLoop=1;jettySize=auto;html=1;labelBackgroundColor=none;strokeColor=#788AA3;fontColor=default;sketch=1;curveFitting=1;jiggle=2;enumerate=0;" edge="1" parent="1" source="G64aTu6GSy-IPctPfjJa-11" target="-T_aHecie3ltty_ikN7--48">
          <mxGeometry relative="1" as="geometry">
            <mxPoint x="849" y="510" as="sourcePoint" />
            <mxPoint x="686" y="510" as="targetPoint" />
          </mxGeometry>
        </mxCell>
        <mxCell id="-T_aHecie3ltty_ikN7--48" value="Genera" style="shape=rhombus;perimeter=rhombusPerimeter;whiteSpace=wrap;html=1;align=center;sketch=1;jiggle=2;curveFitting=1;strokeColor=default;fontFamily=Helvetica;fontSize=12;fontColor=default;fillColor=default;" vertex="1" parent="1">
          <mxGeometry x="700" y="485" width="120" height="50" as="geometry" />
        </mxCell>
        <mxCell id="-T_aHecie3ltty_ikN7--50" value="(1:1)" style="text;html=1;align=center;verticalAlign=middle;resizable=0;points=[];autosize=1;strokeColor=none;fillColor=none;fontSize=12;fontFamily=Helvetica;fontColor=default;sketch=1;curveFitting=1;jiggle=2;" vertex="1" parent="1">
          <mxGeometry x="800" y="470" width="50" height="30" as="geometry" />
        </mxCell>
        <mxCell id="-T_aHecie3ltty_ikN7--51" value="(1:1)" style="text;html=1;align=center;verticalAlign=middle;resizable=0;points=[];autosize=1;strokeColor=none;fillColor=none;fontSize=12;fontFamily=Helvetica;fontColor=default;sketch=1;curveFitting=1;jiggle=2;" vertex="1" parent="1">
          <mxGeometry x="670" y="470" width="50" height="30" as="geometry" />
        </mxCell>
        <mxCell id="-T_aHecie3ltty_ikN7--53" value="" style="edgeStyle=orthogonalEdgeStyle;rounded=0;orthogonalLoop=1;jettySize=auto;html=1;strokeColor=#788AA3;fontColor=#46495D;fillColor=#B2C9AB;sketch=1;curveFitting=1;jiggle=2;enumerate=0;" edge="1" parent="1" source="GxkHW0Vp97XtZDzyzP0c-7" target="-T_aHecie3ltty_ikN7--52">
          <mxGeometry relative="1" as="geometry">
            <mxPoint x="170" y="501" as="sourcePoint" />
            <mxPoint x="80" y="619" as="targetPoint" />
            <Array as="points">
              <mxPoint x="160" y="520" />
              <mxPoint x="90" y="520" />
            </Array>
          </mxGeometry>
        </mxCell>
        <mxCell id="-T_aHecie3ltty_ikN7--52" value="Associa" style="shape=rhombus;perimeter=rhombusPerimeter;whiteSpace=wrap;html=1;align=center;sketch=1;jiggle=2;curveFitting=1;strokeColor=default;fontFamily=Helvetica;fontSize=12;fontColor=default;fillColor=default;" vertex="1" parent="1">
          <mxGeometry x="30" y="540" width="120" height="60" as="geometry" />
        </mxCell>
        <mxCell id="-T_aHecie3ltty_ikN7--54" value="(1:1)" style="text;html=1;align=center;verticalAlign=middle;resizable=0;points=[];autosize=1;strokeColor=none;fillColor=none;fontSize=12;fontFamily=Helvetica;fontColor=default;sketch=1;curveFitting=1;jiggle=2;" vertex="1" parent="1">
          <mxGeometry x="105" y="495" width="50" height="30" as="geometry" />
        </mxCell>
        <mxCell id="-T_aHecie3ltty_ikN7--55" value="(1:1)" style="text;html=1;align=center;verticalAlign=middle;resizable=0;points=[];autosize=1;strokeColor=none;fillColor=none;fontSize=12;fontFamily=Helvetica;fontColor=default;sketch=1;curveFitting=1;jiggle=2;" vertex="1" parent="1">
          <mxGeometry x="35" y="590" width="50" height="30" as="geometry" />
        </mxCell>
        <mxCell id="-T_aHecie3ltty_ikN7--57" value="(1:1)" style="text;html=1;align=center;verticalAlign=middle;resizable=0;points=[];autosize=1;strokeColor=none;fillColor=none;fontSize=12;fontFamily=Helvetica;fontColor=default;sketch=1;curveFitting=1;jiggle=2;" vertex="1" parent="1">
          <mxGeometry x="85" y="708" width="50" height="30" as="geometry" />
        </mxCell>
        <mxCell id="-T_aHecie3ltty_ikN7--59" value="(1:1)" style="text;html=1;align=center;verticalAlign=middle;resizable=0;points=[];autosize=1;strokeColor=none;fillColor=none;fontSize=12;fontFamily=Helvetica;fontColor=default;sketch=1;curveFitting=1;jiggle=2;" vertex="1" parent="1">
          <mxGeometry x="585" y="670" width="50" height="30" as="geometry" />
        </mxCell>
        <mxCell id="-T_aHecie3ltty_ikN7--60" value="(1:1)" style="text;html=1;align=center;verticalAlign=middle;resizable=0;points=[];autosize=1;strokeColor=none;fillColor=none;fontSize=12;fontFamily=Helvetica;fontColor=default;sketch=1;curveFitting=1;jiggle=2;" vertex="1" parent="1">
          <mxGeometry x="225" y="710" width="50" height="30" as="geometry" />
        </mxCell>
        <mxCell id="-T_aHecie3ltty_ikN7--61" value="(1:M)" style="text;html=1;align=center;verticalAlign=middle;resizable=0;points=[];autosize=1;strokeColor=none;fillColor=none;fontSize=12;fontFamily=Helvetica;fontColor=default;sketch=1;curveFitting=1;jiggle=2;" vertex="1" parent="1">
          <mxGeometry x="850" y="359" width="50" height="30" as="geometry" />
        </mxCell>
        <mxCell id="-T_aHecie3ltty_ikN7--64" value="" style="edgeStyle=orthogonalEdgeStyle;rounded=0;orthogonalLoop=1;jettySize=auto;html=1;exitX=0.25;exitY=0;exitDx=0;exitDy=0;entryX=1;entryY=0.5;entryDx=0;entryDy=0;fontFamily=Helvetica;fontSize=12;fontColor=default;sketch=1;curveFitting=1;jiggle=2;" edge="1" parent="1" source="n9X7vhYd9Aa5r7cGzDHP-1" target="-T_aHecie3ltty_ikN7--63">
          <mxGeometry relative="1" as="geometry">
            <mxPoint x="400" y="59" as="sourcePoint" />
            <mxPoint x="261" y="38" as="targetPoint" />
          </mxGeometry>
        </mxCell>
        <mxCell id="-T_aHecie3ltty_ikN7--65" value="" style="edgeStyle=orthogonalEdgeStyle;rounded=0;orthogonalLoop=1;jettySize=auto;html=1;fontFamily=Helvetica;fontSize=12;fontColor=default;sketch=1;curveFitting=1;jiggle=2;" edge="1" parent="1" source="-T_aHecie3ltty_ikN7--63" target="G64aTu6GSy-IPctPfjJa-5">
          <mxGeometry relative="1" as="geometry" />
        </mxCell>
        <mxCell id="-T_aHecie3ltty_ikN7--63" value="Stampa" style="shape=rhombus;perimeter=rhombusPerimeter;whiteSpace=wrap;html=1;align=center;sketch=1;jiggle=2;curveFitting=1;strokeColor=default;fontFamily=Helvetica;fontSize=12;fontColor=default;fillColor=default;" vertex="1" parent="1">
          <mxGeometry x="275" y="15" width="120" height="50" as="geometry" />
        </mxCell>
        <mxCell id="-T_aHecie3ltty_ikN7--66" value="(1:M)" style="text;html=1;align=center;verticalAlign=middle;resizable=0;points=[];autosize=1;strokeColor=none;fillColor=none;fontSize=12;fontFamily=Helvetica;fontColor=default;sketch=1;curveFitting=1;jiggle=2;" vertex="1" parent="1">
          <mxGeometry x="370" y="60" width="50" height="30" as="geometry" />
        </mxCell>
        <mxCell id="-T_aHecie3ltty_ikN7--68" value="(M:1)" style="text;html=1;align=center;verticalAlign=middle;resizable=0;points=[];autosize=1;strokeColor=none;fillColor=none;fontSize=12;fontFamily=Helvetica;fontColor=default;sketch=1;curveFitting=1;jiggle=2;" vertex="1" parent="1">
          <mxGeometry x="235" y="8" width="50" height="30" as="geometry" />
        </mxCell>
        <mxCell id="-T_aHecie3ltty_ikN7--70" value="" style="edgeStyle=orthogonalEdgeStyle;rounded=0;orthogonalLoop=1;jettySize=auto;html=1;fontFamily=Helvetica;fontSize=12;fontColor=default;sketch=1;curveFitting=1;jiggle=2;" edge="1" parent="1" source="-T_aHecie3ltty_ikN7--69" target="GxkHW0Vp97XtZDzyzP0c-8">
          <mxGeometry relative="1" as="geometry" />
        </mxCell>
        <mxCell id="-T_aHecie3ltty_ikN7--69" value="Genera" style="shape=rhombus;perimeter=rhombusPerimeter;whiteSpace=wrap;html=1;align=center;sketch=1;jiggle=2;curveFitting=1;strokeColor=default;fontFamily=Helvetica;fontSize=12;fontColor=default;fillColor=default;" vertex="1" parent="1">
          <mxGeometry x="275" y="560" width="120" height="60" as="geometry" />
        </mxCell>
        <mxCell id="-T_aHecie3ltty_ikN7--72" value="(M:1)" style="text;html=1;align=center;verticalAlign=middle;resizable=0;points=[];autosize=1;strokeColor=none;fillColor=none;fontSize=12;fontFamily=Helvetica;fontColor=default;sketch=1;curveFitting=1;jiggle=2;" vertex="1" parent="1">
          <mxGeometry x="370" y="555" width="50" height="30" as="geometry" />
        </mxCell>
        <mxCell id="-T_aHecie3ltty_ikN7--73" value="(1:M)" style="text;html=1;align=center;verticalAlign=middle;resizable=0;points=[];autosize=1;strokeColor=none;fillColor=none;fontSize=12;fontFamily=Helvetica;fontColor=default;sketch=1;curveFitting=1;jiggle=2;" vertex="1" parent="1">
          <mxGeometry x="280" y="540" width="50" height="30" as="geometry" />
        </mxCell>
      </root>
    </mxGraphModel>
  </diagram>
</mxfile>
